# xmcd
#
# Track frame offsets: 
#        183
#        29198
#        71323
#        95085
#        109523
#        134555
#        156150
#        172233
#        199040
#        217698
#        237445
#        256818
#        285223
#        295395
#        329358
#
# Disc length: 4688 seconds
#
# Revision: 3
# Processed by: cddbd v1.5.2PL0 Copyright (c) Steve Scherf et al.
# Submitted via: ExactAudioCopy v0.99pb4
#
DISCID=e1124e0f
DTITLE=John Mayall - Room to Move 1969-1970 | CD1
DYEAR=1992
DGENRE=Blues
TTITLE0=The laws must change
TTITLE1=California
TTITLE2=Room to move
TTITLE3=Don't waste my time
TTITLE4=Counting the days
TTITLE5=When I go
TTITLE6=To a princess
TTITLE7=Nature's disappearing
TTITLE8=Took the car
TTITLE9=My pretty girl
TTITLE10=Prisons on the road
TTITLE11=Accidental suicide
TTITLE12=Boogie Albert
TTITLE13=Television eye
TTITLE14=Home again
EXTD=
EXTT0=
EXTT1=
EXTT2=
EXTT3=
EXTT4=
EXTT5=
EXTT6=
EXTT7=
EXTT8=
EXTT9=
EXTT10=
EXTT11=
EXTT12=
EXTT13=
EXTT14=
PLAYORDER=
